<svg id="footer" xmlns="http://www.w3.org/2000/svg" width="34.48" height="24.76" viewBox="0 0 34.48 24.76"><defs><style>.cls-1{fill:none;stroke:#007ac3;stroke-miterlimit:10;stroke-width:2px;}.cls-2{fill:#007ac3;}.cls-3{fill:#fff;}</style></defs><title>suffle-btn</title><g id="suffle"><path class="cls-1" d="M20,625h4.4c0.58,0,4.13,0,7.89-5.14,4.08-5.41,7.49-11.41,15.36-11" transform="translate(-20 -604.42)"/><polygon class="cls-2" points="34.48 4.4 26.86 8.8 26.86 0 34.48 4.4"/><polygon class="cls-3" points="10.52 11.98 14.46 16.88 18.77 12.91 14.37 7.48 10.52 11.98"/><path class="cls-1" d="M20,609h4.4c0.58,0,4.13-.17,7.89,4.94,4.08,5.41,7.49,11.51,15.36,11.06" transform="translate(-20 -604.42)"/><polygon class="cls-2" points="34.48 20.35 26.86 15.95 26.86 24.75 34.48 20.35"/></g></svg>